# xmcd
#
# Track frame offsets:
#	150
#	18634
#	38679
#	57358
#	75899
#	95888
#	118134
#	138402
#	156245
#	176485
#	201796
#
# Disc length: 3011 seconds
#
# Revision: 1
# Processed by: cddbd v1.5.2PL0 Copyright (c) Steve Scherf et al.
# Submitted via: audiograbber 1.83.01
#
DISCID=900bc10b
DTITLE=Tina Turner - Tina Turner - Break Every Rule
DYEAR=1986
DGENRE=R&B
TTITLE0=Typical Male
TTITLE1=What You See Is What You Get
TTITLE2=Two People
TTITLE3=Til The Right Man Comes Along
TTITLE4=Afterglow
TTITLE5=Girls
TTITLE6=Back Where You Started
TTITLE7=Break Every Rule
TTITLE8=Overnight Sensation
TTITLE9=Paradise Is Here
TTITLE10=I'll Be Thunder
EXTD=
EXTT0=
EXTT1=
EXTT2=
EXTT3=
EXTT4=
EXTT5=
EXTT6=
EXTT7=
EXTT8=
EXTT9=
EXTT10=
PLAYORDER=
